<svg width="200" height="256" viewBox="0 0 200 256" fill="none" xmlns="http://www.w3.org/2000/svg">
<path d="M190.947 81.737C190.657 76.9027 186.647 73.1342 181.805 73.1427H145.233V45.7142C145.233 20.4668 124.766 0 99.519 0C74.2716 0 53.8048 20.4668 53.8048 45.7142V73.1427H17.2334C12.3905 73.1342 8.38083 76.9027 8.09055 81.737L0.044846 227.017C-0.813438 242.141 10.7511 255.097 25.8751 255.956C26.4071 255.986 26.9402 256.001 27.4734 256H171.656C186.805 256.024 199.104 243.764 199.129 228.615C199.13 228.082 199.115 227.549 199.085 227.017L190.947 81.737ZM72.0904 45.7142C72.0904 30.5657 84.3704 18.2857 99.519 18.2857C114.668 18.2857 126.947 30.5657 126.947 45.7142V73.1427H72.0904V45.7142Z" fill="#2563EB"/>
<path d="M76 168.432L122.06 121.518C124.694 118.835 124.639 114.54 121.936 111.926C119.234 109.311 114.908 109.366 112.274 112.049L76 148.995V168.432Z" fill="white"/>
<path d="M85.8305 178.017L112.274 204.951C114.908 207.634 119.234 207.689 121.936 205.074C124.639 202.459 124.694 198.165 122.06 195.482L95.4942 168.424L85.8305 178.017Z" fill="white"/>
</svg>
